{
	"asset":{
		"generator":"Khronos glTF Blender I/O v4.2.57",
		"version":"2.0"
	},
	"scene":0,
	"scenes":[
		{
			"name":"Scene",
			"nodes":[
				0,
				2
			]
		}
	],
	"nodes":[
		{
			"name":"world"
		},
		{
			"mesh":0,
			"name":"model",
			"translation":[
				6.299999949987978e-05,
				0.09424199908971786,
				0.7672060132026672
			]
		},
		{
			"children":[
				1
			],
			"name":"world.001"
		}
	],
	"materials":[
		{
			"doubleSided":true,
			"name":"place_holder.001",
			"normalTexture":{
				"index":0
			},
			"pbrMetallicRoughness":{
				"baseColorTexture":{
					"index":1
				},
				"metallicRoughnessTexture":{
					"index":2
				}
			}
		}
	],
	"meshes":[
		{
			"name":"model.001",
			"primitives":[
				{
					"attributes":{
						"POSITION":0,
						"NORMAL":1,
						"TEXCOORD_0":2
					},
					"indices":3,
					"material":0
				}
			]
		}
	],
	"textures":[
		{
			"sampler":0,
			"source":0
		},
		{
			"sampler":0,
			"source":1
		},
		{
			"sampler":0,
			"source":2
		}
	],
	"images":[
		{
			"mimeType":"image/png",
			"name":"Image_1",
			"uri":"Image_1.png"
		},
		{
			"mimeType":"image/png",
			"name":"Image_0",
			"uri":"Image_0.png"
		},
		{
			"mimeType":"image/png",
			"name":"Image_2",
			"uri":"Image_2.png"
		}
	],
	"accessors":[
		{
			"bufferView":0,
			"componentType":5126,
			"count":13035,
			"max":[
				0.6806690096855164,
				0.8540840148925781,
				0.06517499685287476
			],
			"min":[
				-0.6806690096855164,
				-1.0316890478134155,
				-1.5781190395355225
			],
			"type":"VEC3"
		},
		{
			"bufferView":1,
			"componentType":5126,
			"count":13035,
			"type":"VEC3"
		},
		{
			"bufferView":2,
			"componentType":5126,
			"count":13035,
			"type":"VEC2"
		},
		{
			"bufferView":3,
			"componentType":5123,
			"count":57216,
			"type":"SCALAR"
		}
	],
	"bufferViews":[
		{
			"buffer":0,
			"byteLength":156420,
			"byteOffset":0,
			"target":34962
		},
		{
			"buffer":0,
			"byteLength":156420,
			"byteOffset":156420,
			"target":34962
		},
		{
			"buffer":0,
			"byteLength":104280,
			"byteOffset":312840,
			"target":34962
		},
		{
			"buffer":0,
			"byteLength":114432,
			"byteOffset":417120,
			"target":34963
		}
	],
	"samplers":[
		{
			"magFilter":9729,
			"minFilter":9987
		}
	],
	"buffers":[
		{
			"byteLength":531552,
			"uri":"scene.bin"
		}
	]
}
