{
	"asset":{
		"generator":"Khronos glTF Blender I/O v4.2.57",
		"version":"2.0"
	},
	"scene":0,
	"scenes":[
		{
			"name":"Scene",
			"nodes":[
				0,
				1,
				3
			]
		}
	],
	"nodes":[
		{
			"name":"world"
		},
		{
			"name":"world.001"
		},
		{
			"mesh":0,
			"name":"model"
		},
		{
			"children":[
				2
			],
			"name":"world.002"
		}
	],
	"materials":[
		{
			"doubleSided":true,
			"name":"place_holder",
			"normalTexture":{
				"index":0
			},
			"pbrMetallicRoughness":{
				"baseColorTexture":{
					"index":1
				},
				"metallicRoughnessTexture":{
					"index":2
				}
			}
		}
	],
	"meshes":[
		{
			"name":"model",
			"primitives":[
				{
					"attributes":{
						"POSITION":0,
						"NORMAL":1,
						"TEXCOORD_0":2
					},
					"indices":3,
					"material":0
				}
			]
		}
	],
	"textures":[
		{
			"sampler":0,
			"source":0
		},
		{
			"sampler":0,
			"source":1
		},
		{
			"sampler":0,
			"source":2
		}
	],
	"images":[
		{
			"mimeType":"image/png",
			"name":"Image_1",
			"uri":"textures/Image_1.png"
		},
		{
			"mimeType":"image/png",
			"name":"Image_0",
			"uri":"textures/Image_0.png"
		},
		{
			"mimeType":"image/png",
			"name":"Image_2",
			"uri":"textures/Image_2.png"
		}
	],
	"accessors":[
		{
			"bufferView":0,
			"componentType":5126,
			"count":14520,
			"max":[
				0.6277409791946411,
				0.8950309753417969,
				0.4157490134239197
			],
			"min":[
				-0.6275320053100586,
				-0.9473400115966797,
				-0.33204400539398193
			],
			"type":"VEC3"
		},
		{
			"bufferView":1,
			"componentType":5126,
			"count":14520,
			"type":"VEC3"
		},
		{
			"bufferView":2,
			"componentType":5126,
			"count":14520,
			"type":"VEC2"
		},
		{
			"bufferView":3,
			"componentType":5123,
			"count":61794,
			"type":"SCALAR"
		}
	],
	"bufferViews":[
		{
			"buffer":0,
			"byteLength":174240,
			"byteOffset":0,
			"target":34962
		},
		{
			"buffer":0,
			"byteLength":174240,
			"byteOffset":174240,
			"target":34962
		},
		{
			"buffer":0,
			"byteLength":116160,
			"byteOffset":348480,
			"target":34962
		},
		{
			"buffer":0,
			"byteLength":123588,
			"byteOffset":464640,
			"target":34963
		}
	],
	"samplers":[
		{
			"magFilter":9729,
			"minFilter":9987
		}
	],
	"buffers":[
		{
			"byteLength":588228,
			"uri":"scene.bin"
		}
	]
}
